<?xml version="1.0" encoding="UTF-8"?>
<svg width="52px" height="52px" viewBox="0 0 52 52" version="1.1" xmlns="http://www.w3.org/2000/svg" xmlns:xlink="http://www.w3.org/1999/xlink">
    <!-- Generator: Sketch 62 (91390) - https://sketch.com -->
    <title>icon</title>
    <desc>Created with Sketch.</desc>
    <g id="Page-1" stroke="none" stroke-width="1" fill="none" fill-rule="evenodd">
        <g id="icon" fill="#FFE348">
            <path d="M26.3115348,0.776505724 C40.4106763,0.776505724 51.8406893,12.1968063 51.8406893,26.284502 C51.8406893,39.7863393 41.3415782,50.8384219 28.0560599,51.734307 L28.0553203,31.8502811 L37.3445249,41.1939227 C37.7531157,41.6048889 38.2885848,41.810372 38.8244839,41.810372 C39.3599529,41.810372 39.895852,41.6048889 40.3044428,41.1939227 C41.1220545,40.3715576 41.1220545,39.0382967 40.3044428,38.2163642 L31.0152382,28.8731552 L44.152078,28.8731552 C45.3081749,28.8731552 46.2453532,27.9309611 46.2453532,26.768143 C46.2453532,25.6053248 45.3081749,24.6626981 44.152078,24.6626981 L31.0152382,24.6626981 L40.3044428,15.3194891 C41.1220545,14.4975567 41.1220545,13.1647283 40.3044428,12.3427959 C39.4868311,11.5204308 38.1617066,11.5204308 37.3445249,12.3427959 L28.0553203,21.6855722 L28.0553203,8.4723592 C28.0553203,7.30997368 27.118142,6.36734694 25.9620451,6.36734694 C24.8063782,6.36734694 23.8691999,7.30997368 23.8691999,8.4723592 L23.8691999,21.6855722 L14.5799953,12.3427959 C13.7628137,11.5199982 12.4376891,11.5199982 11.6200774,12.3427959 C10.8024657,13.1647283 10.8024657,14.4975567 11.6200774,15.3194891 L20.909282,24.6626981 L7.77244223,24.6626981 C6.61634528,24.6626981 5.67916698,25.6053248 5.67916698,26.768143 C5.67916698,27.9309611 6.61634528,28.8731552 7.77244223,28.8731552 L20.909282,28.8731552 L11.6200774,38.2163642 C10.8024657,39.0382967 10.8024657,40.3715576 11.6200774,41.1939227 C12.0290983,41.6048889 12.5645673,41.810372 13.1000363,41.810372 C13.6359355,41.810372 14.1714045,41.6048889 14.5799953,41.1939227 L23.8691999,31.8507137 L23.8683498,51.6776249 C10.9153649,50.4487282 0.783247952,39.5487669 0.783247952,26.284502 C0.783247952,12.1968063 12.2123933,0.776505724 26.3115348,0.776505724 Z" id="Combined-Shape"></path>
        </g>
    </g>
</svg>