<?xml version="1.0" encoding="UTF-8"?>
<svg width="287px" height="194px" viewBox="0 0 287 194" version="1.1" xmlns="http://www.w3.org/2000/svg" xmlns:xlink="http://www.w3.org/1999/xlink">
    <!-- Generator: Sketch 62 (91390) - https://sketch.com -->
    <title>islandlabLogo</title>
    <desc>Created with Sketch.</desc>
    <g id="Page-1" stroke="none" stroke-width="1" fill="none" fill-rule="evenodd">
        <g id="Artboard" transform="translate(-576.000000, -258.000000)">
            <g id="islandlabLogo" transform="translate(577.000000, 258.000000)">
                <path d="M179.040766,48.4996899 C179.040766,68.6579383 162.685427,85 142.510801,85 C122.336174,85 105.982077,68.6579383 105.982077,48.4996899 C105.982077,28.3414414 122.336174,12 142.510801,12 C162.685427,12 179.040766,28.3414414 179.040766,48.4996899" id="Fill-20" fill="#FFE348"></path>
                <path d="M168.039042,46.1790317 L149.241385,46.1790317 L162.533416,32.8097248 C163.703346,31.6336121 163.703346,29.7264524 162.533416,28.5503397 C161.363486,27.3736079 159.46735,27.3736079 158.298035,28.5503397 L145.006004,41.9190275 L145.006004,23.0120866 C145.006004,21.3488156 143.664984,20 142.010712,20 C140.357055,20 139.016035,21.3488156 139.016035,23.0120866 L139.016035,41.9190275 L125.724004,28.5503397 C124.554689,27.3729889 122.658553,27.3729889 121.488623,28.5503397 C120.318693,29.7264524 120.318693,31.6336121 121.488623,32.8097248 L134.780654,46.1790317 L115.982997,46.1790317 C114.328724,46.1790317 112.987705,47.5278473 112.987705,49.1917373 C112.987705,50.8556274 114.328724,52.203824 115.982997,52.203824 L134.780654,52.203824 L121.488623,65.5731308 C120.318693,66.7492436 120.318693,68.6570223 121.488623,69.833754 C122.073896,70.4218104 122.840104,70.7158386 123.606313,70.7158386 C124.373138,70.7158386 125.139346,70.4218104 125.724004,69.833754 L139.016035,56.4644471 L139.016035,132.987913 C139.016035,134.651803 140.357055,136 142.010712,136 C143.664984,136 145.006004,134.651803 145.006004,132.987913 L145.006004,56.4638281 L158.298035,69.833754 C158.882693,70.4218104 159.648901,70.7158386 160.415726,70.7158386 C161.181935,70.7158386 161.948759,70.4218104 162.533416,69.833754 C163.703346,68.6570223 163.703346,66.7492436 162.533416,65.5731308 L149.241385,52.203824 L168.039042,52.203824 C169.693315,52.203824 171.034334,50.8556274 171.034334,49.1917373 C171.034334,47.5278473 169.693315,46.1790317 168.039042,46.1790317" id="Fill-22" fill="#000000"></path>
                <path d="M128.516594,94 C128.212426,94 127.904533,93.95388 127.599124,93.8561055 C107.486175,87.430048 93.9724294,69.0361503 93.9724294,48.0847431 C93.9724294,21.5712604 115.747128,0 142.511421,0 C169.276336,0 191.050414,21.5712604 191.050414,48.0847431 C191.050414,68.7225341 177.800487,87.0303411 158.078611,93.6414936 C156.51494,94.166647 154.822773,93.3352566 154.293893,91.7880834 C153.765634,90.241525 154.603027,88.5627559 156.164836,88.0394473 C173.460197,82.2418521 185.080653,66.1853175 185.080653,48.0847431 C185.080653,24.831639 165.983873,5.91443263 142.511421,5.91443263 C119.038349,5.91443263 99.9428111,24.831639 99.9428111,48.0847431 C99.9428111,66.4601929 111.792945,82.5923644 129.432201,88.2276171 C131.000838,88.7287881 131.862441,90.3952585 131.356529,91.949196 C130.948695,93.201816 129.776718,94 128.516594,94" id="Fill-24" fill="#000000"></path>
                <path d="M7.98197588,194 C9.54496779,194 10.7681788,193.757576 11.6516091,193.272727 C12.5350393,192.787879 12.9767544,192.164502 12.9767544,191.402597 C12.9767544,190.987013 12.8918092,190.623377 12.7219187,190.311688 C12.5520283,190 12.3651488,189.74026 12.1612803,189.532468 C11.6855871,189.809524 11.0909707,190.051948 10.3774309,190.25974 C9.66389109,190.467532 9.01830747,190.571429 8.44068002,190.571429 C7.04757854,190.571429 5.96877434,190.285714 5.20426742,189.714286 C4.43976051,189.142857 4.05750705,188.164502 4.05750705,186.779221 L4.05750705,186.779221 L4.05750705,173.272727 L11.3458063,173.272727 C12.3651488,173.272727 12.8748201,172.683983 12.8748201,171.506494 C12.8748201,171.160173 12.823853,170.839827 12.7219187,170.545455 C12.6199845,170.251082 12.5180502,170.017316 12.416116,169.844156 L12.416116,169.844156 L4.05750705,169.844156 L4.05750705,163.87013 C4.05750705,162.623377 3.34396727,162 1.9168877,162 C1.50915068,162 1.12689722,162.04329 0.770127327,162.12987 C0.413357434,162.21645 0.150027275,162.294372 -0.01986315,162.363636 L-0.01986315,162.363636 L-0.01986315,187.038961 C-0.01986315,189.532468 0.7191602,191.316017 2.1972069,192.38961 C3.6752536,193.463203 5.60350992,194 7.98197588,194 Z M38.0228675,193 C38.408732,193 38.7858268,192.957071 39.154152,192.871212 C39.5224772,192.785354 39.7943363,192.708081 39.9697292,192.639394 L39.9697292,192.639394 L39.9697292,177.648485 C39.9697292,176.068687 39.7241791,174.686364 39.2330789,173.501515 C38.7419786,172.316667 38.0579461,171.337879 37.1809814,170.565152 C36.3040166,169.792424 35.2604286,169.217172 34.0502172,168.839394 C32.8400059,168.461616 31.4982498,168.272727 30.024949,168.272727 C28.5867268,168.272727 27.2975887,168.461616 26.1575345,168.839394 C25.0174803,169.217172 24.0265102,169.646465 23.184624,170.127273 L23.184624,170.127273 L23.184624,160.854545 C23.184624,159.618182 22.4479736,159 20.9746729,159 C20.5537298,159 20.1590956,159.042929 19.7907704,159.128788 C19.4224453,159.214646 19.1505862,159.291919 18.9751932,159.360606 L18.9751932,159.360606 L18.9751932,191.145455 C18.9751932,192.381818 19.7293829,193 21.2377623,193 C21.6587054,193 22.0445698,192.957071 22.3953557,192.871212 C22.7461416,192.785354 23.0092311,192.708081 23.184624,192.639394 L23.184624,192.639394 L23.184624,173.887879 C23.9914316,173.269697 24.9297839,172.74596 25.9996808,172.316667 C27.0695778,171.887374 28.2184017,171.672727 29.4461523,171.672727 C31.3403961,171.672727 32.8663148,172.170707 34.0239083,173.166667 C35.1815017,174.162626 35.7602985,175.690909 35.7602985,177.751515 L35.7602985,177.751515 L35.7602985,191.145455 C35.7602985,192.381818 36.5144881,193 38.0228675,193 Z M58.8366139,194 C59.9645254,194 61.015534,193.897541 61.9896394,193.692623 C62.9637449,193.487705 63.8182233,193.214481 64.5530748,192.872951 C65.2879263,192.531421 65.8689717,192.138661 66.2962109,191.694672 C66.7234501,191.250683 66.9370698,190.789617 66.9370698,190.311475 C66.9370698,189.491803 66.5269201,188.842896 65.7066208,188.364754 C65.023038,188.911202 64.1002012,189.423497 62.9381105,189.901639 C61.7760198,190.379781 60.4772125,190.618852 59.0416887,190.618852 C54.0857136,190.618852 51.1463076,188.381831 50.2234709,183.907787 L50.2234709,183.907787 L66.014233,181.704918 C66.6294575,181.636612 67.1079654,181.440232 67.4497568,181.115779 C67.7915482,180.791325 67.9624439,180.253415 67.9624439,179.502049 C67.9624439,177.965164 67.6975556,176.556352 67.1677789,175.275615 C66.6380023,173.994877 65.9031508,172.884904 64.9632245,171.945697 C64.0232982,171.006489 62.9039314,170.280738 61.6051241,169.768443 C60.3063168,169.256148 58.8878826,169 57.3498213,169 C55.7092227,169 54.188251,169.281762 52.7869063,169.845287 C51.3855616,170.408811 50.180747,171.219945 49.1724624,172.278689 C48.1641778,173.337432 47.3780576,174.626708 46.8141018,176.146516 C46.250146,177.666325 45.9681681,179.39959 45.9681681,181.346311 C45.9681681,185.478825 47.121714,188.620902 49.4288059,190.772541 C51.7358978,192.92418 54.8718338,194 58.8366139,194 Z M49.9671273,181 C50.0349885,178.109756 50.7475303,175.887195 52.1047528,174.332317 C53.4619754,172.777439 55.1754688,172 57.2452332,172 C59.281067,172 60.8673208,172.64939 62.0039947,173.948171 C63.1406685,175.246951 63.7938319,176.902439 63.9634847,178.914634 L63.9634847,178.914634 L49.9671273,181 Z M87.4816357,164 C88.2257786,164 88.8243284,163.758333 89.2772849,163.275 C89.7302415,162.791667 89.9567197,162.2 89.9567197,161.5 C89.9567197,160.8 89.7302415,160.208333 89.2772849,159.725 C88.8243284,159.241667 88.2257786,159 87.4816357,159 C86.7374928,159 86.1308546,159.241667 85.661721,159.725 C85.1925875,160.208333 84.9580207,160.8 84.9580207,161.5 C84.9580207,162.2 85.1925875,162.791667 85.661721,163.275 C86.1308546,163.758333 86.7374928,164 87.4816357,164 Z M87.1074613,194 C87.5073572,194 87.8739285,193.955862 88.2071751,193.867585 C88.5404217,193.779308 88.7903566,193.699859 88.9569799,193.629237 L88.9569799,193.629237 L88.9569799,170.959746 C88.9569799,169.653249 88.2571621,169 86.8575263,169 C86.4576304,169 86.082728,169.044138 85.732819,169.132415 C85.3829101,169.220692 85.124644,169.300141 84.9580207,169.370763 L84.9580207,169.370763 L84.9580207,192.09322 C84.9580207,193.364407 85.6745009,194 87.1074613,194 Z M104.674016,194 C107.681684,194 109.979678,193.385246 111.567997,192.155738 C113.156316,190.92623 113.950475,189.218579 113.950475,187.032787 C113.950475,185.086066 113.375977,183.540642 112.22698,182.396516 C111.077983,181.252391 109.354488,180.390027 107.056495,179.809426 L107.056495,179.809426 L103.558813,178.938525 C102.376023,178.665301 101.531172,178.255464 101.024262,177.709016 C100.517352,177.162568 100.263896,176.496585 100.263896,175.711066 C100.263896,174.652322 100.711667,173.83265 101.607209,173.252049 C102.50275,172.671448 103.710887,172.381148 105.231618,172.381148 C106.752349,172.381148 108.070315,172.620219 109.185518,173.098361 C110.300721,173.576503 111.162468,174.020492 111.770761,174.430328 C112.142495,174.259563 112.438193,174.003415 112.657854,173.661885 C112.877515,173.320355 112.987346,172.927596 112.987346,172.483607 C112.987346,171.561475 112.260774,170.750342 110.807631,170.050205 C109.354488,169.350068 107.445126,169 105.079544,169 C103.592608,169 102.299986,169.179303 101.20168,169.53791 C100.103375,169.896516 99.1824877,170.383197 98.4390192,170.997951 C97.6955507,171.612705 97.1463979,172.329918 96.7915606,173.14959 C96.4367234,173.969262 96.2593048,174.823087 96.2593048,175.711066 C96.2593048,177.35041 96.7324211,178.690915 97.6786537,179.732582 C98.6248863,180.774249 100.12872,181.568306 102.190156,182.114754 L102.190156,182.114754 L106.397511,183.241803 C108.729299,183.822404 109.895193,185.086066 109.895193,187.032787 C109.895193,189.423497 108.137903,190.618852 104.623325,190.618852 C103.0688,190.618852 101.683245,190.354167 100.46666,189.824795 C99.2500757,189.295423 98.185564,188.689208 97.2731254,188.006148 C96.8338032,188.279372 96.5043114,188.603825 96.2846503,188.979508 C96.0649892,189.355191 95.9551586,189.747951 95.9551586,190.157787 C95.9551586,190.635929 96.1663712,191.105533 96.5887965,191.566598 C97.0112218,192.027664 97.6026172,192.4375 98.3629826,192.796107 C99.1233481,193.154713 100.044235,193.445014 101.125644,193.667008 C102.207053,193.889003 103.389843,194 104.674016,194 Z M123.098094,193 C123.49799,193 123.864562,192.957071 124.197808,192.871212 C124.531055,192.785354 124.78099,192.708081 124.947613,192.639394 L124.947613,192.639394 L124.947613,160.854545 C124.947613,159.618182 124.231133,159 122.798172,159 C122.431601,159 122.073361,159.042929 121.723452,159.128788 C121.373543,159.214646 121.115277,159.291919 120.948654,159.360606 L120.948654,159.360606 L120.948654,191.145455 C120.948654,192.381818 121.665134,193 123.098094,193 Z M141.177155,194 C142.94293,194 144.509621,193.821063 145.877231,193.46319 C147.24484,193.105317 148.344121,192.687798 149.175074,192.210634 C149.763665,191.869802 150.205109,191.503408 150.499405,191.111452 C150.7937,190.719496 150.940848,190.148603 150.940848,189.398773 L150.940848,189.398773 L150.940848,177.282209 C150.940848,174.419223 150.057961,172.323108 148.292187,170.993865 C146.526413,169.664622 144.137424,169 141.125221,169 C139.705677,169 138.390002,169.127812 137.178196,169.383436 C135.96639,169.639059 134.893077,170.005453 133.958255,170.482618 C133.43891,170.755283 133.058056,171.04499 132.815695,171.351738 C132.573334,171.658487 132.452153,172.050443 132.452153,172.527607 C132.452153,172.902522 132.564678,173.243354 132.789728,173.550102 C133.014778,173.856851 133.265795,174.129516 133.542779,174.368098 C134.546846,173.856851 135.689406,173.396728 136.970458,172.98773 C138.25151,172.578732 139.619119,172.374233 141.073286,172.374233 C142.839061,172.374233 144.241293,172.76619 145.279984,173.550102 C146.318674,174.334015 146.83802,175.57805 146.83802,177.282209 L146.83802,177.282209 L146.83802,178.713701 L139.463316,179.429448 C136.76272,179.702113 134.668027,180.409339 133.179237,181.551125 C131.690447,182.692911 130.946052,184.388548 130.946052,186.638037 C130.946052,189.023858 131.837595,190.847307 133.620681,192.108384 C135.403766,193.369461 137.922591,194 141.177155,194 Z M141.155784,191 C139.067832,191 137.510715,190.638235 136.484434,189.914706 C135.458152,189.191176 134.945011,188.158824 134.945011,186.817647 C134.945011,185.547059 135.387374,184.585294 136.272099,183.932353 C137.156825,183.279412 138.519302,182.864706 140.359531,182.688235 L140.359531,182.688235 L146.941889,182 L146.941889,189.676471 C146.517221,189.958824 145.818288,190.25 144.845089,190.55 C143.871891,190.85 142.642123,191 141.155784,191 Z M177.991308,194 C178.376208,194 178.75236,193.956597 179.119764,193.869792 C179.487169,193.782986 179.758348,193.704861 179.933303,193.635417 L179.933303,193.635417 L179.933303,177.854167 C179.933303,174.798611 179.014792,172.559028 177.17777,171.135417 C175.340748,169.711806 172.830151,169 169.64598,169 C167.756472,169 166.059413,169.225694 164.554805,169.677083 C163.050197,170.128472 161.843011,170.631944 160.933248,171.1875 C160.198439,171.638889 159.682323,172.098958 159.384901,172.567708 C159.087478,173.036458 158.938767,173.635417 158.938767,174.364583 L158.938767,174.364583 L158.938767,192.125 C158.938767,193.375 159.691071,194 161.195679,194 C161.61557,194 162.00047,193.956597 162.350379,193.869792 C162.700288,193.782986 162.962719,193.704861 163.137674,193.635417 L163.137674,193.635417 L163.137674,174.15625 C163.907473,173.704861 164.834732,173.305556 165.91945,172.958333 C167.004168,172.611111 168.246344,172.4375 169.64598,172.4375 C171.500497,172.4375 172.978863,172.888889 174.081076,173.791667 C175.183289,174.694444 175.734395,176.118056 175.734395,178.0625 L175.734395,178.0625 L175.734395,192.125 C175.734395,193.375 176.4867,194 177.991308,194 Z M198.679018,194 C200.350792,194 201.831008,193.799152 203.119667,193.397455 C204.408326,192.995758 205.400942,192.567864 206.097515,192.113772 C206.72443,191.729541 207.185909,191.345309 207.481952,190.961078 C207.777996,190.576846 207.926017,190.035429 207.926017,189.336826 L207.926017,189.336826 L207.926017,160.886228 C207.926017,159.628743 207.177202,159 205.679571,159 C205.296456,159 204.922049,159.043663 204.556348,159.130988 C204.190647,159.218313 203.920726,159.296906 203.746582,159.366766 L203.746582,159.366766 L203.746582,169.898204 C202.980353,169.479042 202.074809,169.129741 201.02995,168.850299 C199.985091,168.570858 198.905404,168.431138 197.790888,168.431138 C196.153943,168.431138 194.612776,168.675649 193.167388,169.164671 C191.722,169.653693 190.46817,170.422156 189.405897,171.47006 C188.343624,172.517964 187.49903,173.854042 186.872114,175.478293 C186.245199,177.102545 185.931741,179.0499 185.931741,181.320359 C185.931741,183.555888 186.236492,185.468313 186.845993,187.057635 C187.455494,188.646956 188.326209,189.956836 189.45814,190.987275 C190.59007,192.017715 191.939679,192.777445 193.506967,193.266467 C195.074255,193.755489 196.798272,194 198.679018,194 Z M198.009679,191 C195.567586,191 193.610567,190.270599 192.13862,188.811798 C190.666674,187.352996 189.930701,184.986891 189.930701,181.713483 C189.930701,179.934457 190.139784,178.422285 190.557951,177.176966 C190.976117,175.931648 191.53646,174.926498 192.23898,174.161517 C192.9415,173.396536 193.752743,172.845037 194.67271,172.507022 C195.592676,172.169007 196.571186,172 197.608239,172 C198.745652,172 199.749252,172.177903 200.619039,172.533708 C201.488825,172.889513 202.258252,173.316479 202.927318,173.814607 L202.927318,173.814607 L202.927318,189.61236 C202.325158,190.003745 201.647728,190.332865 200.895029,190.599719 C200.142329,190.866573 199.180546,191 198.009679,191 Z M228.070774,193 C228.47067,193 228.837242,192.957071 229.170488,192.871212 C229.503735,192.785354 229.75367,192.708081 229.920293,192.639394 L229.920293,192.639394 L229.920293,160.854545 C229.920293,159.618182 229.203813,159 227.770853,159 C227.404281,159 227.046041,159.042929 226.696132,159.128788 C226.346223,159.214646 226.087957,159.291919 225.921334,159.360606 L225.921334,159.360606 L225.921334,191.145455 C225.921334,192.381818 226.637814,193 228.070774,193 Z M247.149575,194 C248.915349,194 250.482041,193.821063 251.849651,193.46319 C253.21726,193.105317 254.316541,192.687798 255.147494,192.210634 C255.736085,191.869802 256.177529,191.503408 256.471824,191.111452 C256.76612,190.719496 256.913268,190.148603 256.913268,189.398773 L256.913268,189.398773 L256.913268,177.282209 C256.913268,174.419223 256.030381,172.323108 254.264607,170.993865 C252.498832,169.664622 250.109844,169 247.097641,169 C245.678097,169 244.362422,169.127812 243.150616,169.383436 C241.93881,169.639059 240.865496,170.005453 239.930675,170.482618 C239.411329,170.755283 239.030476,171.04499 238.788115,171.351738 C238.545754,171.658487 238.424573,172.050443 238.424573,172.527607 C238.424573,172.902522 238.537098,173.243354 238.762148,173.550102 C238.987197,173.856851 239.238214,174.129516 239.515199,174.368098 C240.519266,173.856851 241.661826,173.396728 242.942878,172.98773 C244.22393,172.578732 245.591539,172.374233 247.045706,172.374233 C248.81148,172.374233 250.213713,172.76619 251.252404,173.550102 C252.291094,174.334015 252.81044,175.57805 252.81044,177.282209 L252.81044,177.282209 L252.81044,178.713701 L245.435736,179.429448 C242.73514,179.702113 240.640447,180.409339 239.151657,181.551125 C237.662867,182.692911 236.918472,184.388548 236.918472,186.638037 C236.918472,189.023858 237.810015,190.847307 239.5931,192.108384 C241.376186,193.369461 243.895011,194 247.149575,194 Z M247.128204,191 C245.040252,191 243.483135,190.638235 242.456853,189.914706 C241.430572,189.191176 240.917431,188.158824 240.917431,186.817647 C240.917431,185.547059 241.359794,184.585294 242.244519,183.932353 C243.129245,183.279412 244.491722,182.864706 246.331951,182.688235 L246.331951,182.688235 L252.914309,182 L252.914309,189.676471 C252.48964,189.958824 251.790707,190.25 250.817509,190.55 C249.844311,190.85 248.614543,191 247.128204,191 Z M273.814083,194 C275.586133,194 277.2192,193.746756 278.713282,193.240269 C280.207363,192.733782 281.484282,191.956587 282.544038,190.908683 C283.603794,189.860778 284.429014,188.533433 285.019697,186.926647 C285.610381,185.31986 285.905722,183.416168 285.905722,181.215569 C285.905722,179.0499 285.619067,177.163673 285.045757,175.556886 C284.472446,173.9501 283.673286,172.622754 282.648276,171.57485 C281.623267,170.526946 280.41584,169.741018 279.025996,169.217066 C277.636153,168.693114 276.142071,168.431138 274.543751,168.431138 C273.119161,168.431138 271.876988,168.614521 270.817232,168.981287 C269.757477,169.348054 268.845392,169.775948 268.080978,170.26497 L268.080978,170.26497 L268.080978,160.886228 C268.080978,159.628743 267.35131,159 265.891974,159 C265.475021,159 265.084127,159.043663 264.719293,159.130988 C264.354459,159.218313 264.085177,159.296906 263.911447,159.366766 L263.911447,159.366766 L263.911447,188.917665 C263.911447,189.651198 264.050431,190.236277 264.3284,190.672904 C264.606368,191.109531 265.110187,191.55489 265.839855,192.008982 C266.708507,192.532934 267.829068,192.995758 269.201539,193.397455 C270.57401,193.799152 272.111524,194 273.814083,194 Z M274.387647,191 C273.126162,191 272.022363,190.822097 271.076249,190.466292 C270.130135,190.110487 269.4081,189.736891 268.910146,189.345506 L268.910146,189.345506 L268.910146,174.241573 C269.574085,173.636704 270.379112,173.111891 271.325226,172.667135 C272.27134,172.222378 273.325344,172 274.487238,172 C275.549542,172 276.537152,172.186798 277.450069,172.560393 C278.362986,172.933989 279.151414,173.503277 279.815353,174.268258 C280.479293,175.03324 280.993846,176.020599 281.359013,177.230337 C281.72418,178.440075 281.906763,179.863296 281.906763,181.5 C281.906763,183.136704 281.72418,184.55103 281.359013,185.742978 C280.993846,186.934925 280.479293,187.922285 279.815353,188.705056 C279.151414,189.487828 278.362986,190.066011 277.450069,190.439607 C276.537152,190.813202 275.516345,191 274.387647,191 Z" id="theislandlab" fill="#000000" fill-rule="nonzero"></path>
            </g>
        </g>
    </g>
</svg>