<?xml version="1.0" encoding="UTF-8"?>
<svg width="491px" height="440px" viewBox="0 0 491 440" version="1.1" xmlns="http://www.w3.org/2000/svg" xmlns:xlink="http://www.w3.org/1999/xlink">
    <!-- Generator: Sketch 62 (91390) - https://sketch.com -->
    <title>Group 26</title>
    <desc>Created with Sketch.</desc>
    <g id="Page-1" stroke="none" stroke-width="1" fill="none" fill-rule="evenodd">
        <g id="Artboard" transform="translate(-104.000000, -149.000000)">
            <g id="Group-26" transform="translate(103.814433, 149.000000)">
                <path d="M319.654639,100.499359 C319.654639,142.196557 285.850909,176 244.153356,176 C202.455803,176 168.654639,142.196557 168.654639,100.499359 C168.654639,58.8021597 202.455803,25 244.153356,25 C285.850909,25 319.654639,58.8021597 319.654639,100.499359" id="Fill-20" fill="#FFE348"></path>
                <path d="M297.462462,94.9378325 L258.601999,94.9378325 L286.080662,67.3924503 C288.499262,64.9692524 288.499262,61.0398459 286.080662,58.6166481 C283.662061,56.1921749 279.742172,56.1921749 277.324843,58.6166481 L249.846181,86.160755 L249.846181,47.2059371 C249.846181,43.7790253 247.073887,41 243.654003,41 C240.235392,41 237.463098,43.7790253 237.463098,47.2059371 L237.463098,86.160755 L209.984435,58.6166481 C207.567106,56.1908995 203.647218,56.1908995 201.228617,58.6166481 C198.810016,61.0398459 198.810016,64.9692524 201.228617,67.3924503 L228.70728,94.9378325 L189.846817,94.9378325 C186.426933,94.9378325 183.654639,97.7168578 183.654639,101.145045 C183.654639,104.573232 186.426933,107.350982 189.846817,107.350982 L228.70728,107.350982 L201.228617,134.896364 C198.810016,137.319562 198.810016,141.250244 201.228617,143.674717 C202.438553,144.886316 204.02254,145.492116 205.606526,145.492116 C207.191784,145.492116 208.775771,144.886316 209.984435,143.674717 L237.463098,116.129335 L237.463098,273.794063 C237.463098,277.22225 240.235392,280 243.654003,280 C247.073887,280 249.846181,277.22225 249.846181,273.794063 L249.846181,116.12806 L277.324843,143.674717 C278.533508,144.886316 280.117494,145.492116 281.702752,145.492116 C283.286739,145.492116 284.871997,144.886316 286.080662,143.674717 C288.499262,141.250244 288.499262,137.319562 286.080662,134.896364 L258.601999,107.350982 L297.462462,107.350982 C300.882345,107.350982 303.654639,104.573232 303.654639,101.145045 C303.654639,97.7168578 300.882345,94.9378325 297.462462,94.9378325" id="Fill-22" fill="#000000"></path>
                <path d="M215.822504,194 C215.195857,194 214.561537,193.904816 213.932333,193.703026 C172.49565,180.440737 144.654639,142.478863 144.654639,99.2387251 C144.654639,44.5194097 189.514859,0 244.654639,0 C299.795699,0 344.654639,44.5194097 344.654639,99.2387251 C344.654639,141.831613 317.357148,179.61581 276.726154,193.260104 C273.504679,194.343931 270.018478,192.628083 268.92888,189.434981 C267.840561,186.243147 269.565758,182.778454 272.783396,181.698434 C308.415286,169.733184 332.355742,136.59523 332.355742,99.2387251 C332.355742,51.2482762 293.012569,12.2063822 244.654639,12.2063822 C196.29543,12.2063822 156.954816,51.2482762 156.954816,99.2387251 C156.954816,137.162526 181.368454,170.456582 217.708838,182.086784 C220.940543,183.121116 222.715616,186.560427 221.673336,189.76749 C220.833118,192.352684 218.418611,194 215.822504,194" id="Fill-24" fill="#000000"></path>
                <text id="By-The-Eco-Org" font-family="Roboto-Regular, Roboto" font-size="24" font-weight="normal" letter-spacing="1" fill="#24262D">
                    <tspan x="0.18556701" y="434">By The Eco Org</tspan>
                </text>
                <path d="M14.1784369,388 C16.9116514,388 19.0506888,387.57989 20.5955492,386.739669 C22.1404096,385.899449 22.9128397,384.819166 22.9128397,383.498819 C22.9128397,382.77863 22.7642955,382.148465 22.4672069,381.608323 C22.1701184,381.068182 21.843321,380.618064 21.4868148,380.257969 C20.6549669,380.738095 19.615157,381.158205 18.3673852,381.5183 C17.1196134,381.878394 15.9906769,382.058442 14.9805759,382.058442 C12.54445,382.058442 10.6579378,381.563312 9.32103938,380.573052 C7.98414099,379.582792 7.31569179,377.887348 7.31569179,375.486718 L7.31569179,375.486718 L7.31569179,352.080579 L20.0607898,352.080579 C21.843321,352.080579 22.7345866,351.060311 22.7345866,349.019776 C22.7345866,348.419618 22.6454601,347.864473 22.4672069,347.354339 C22.2889538,346.844205 22.1107007,346.439099 21.9324476,346.13902 L21.9324476,346.13902 L7.31569179,346.13902 L7.31569179,335.786305 C7.31569179,333.625738 6.06791995,332.545455 3.57237628,332.545455 C2.8593638,332.545455 2.1909146,332.620474 1.56702869,332.770514 C0.943142768,332.920553 0.482655543,333.055588 0.18556701,333.17562 L0.18556701,333.17562 L0.18556701,375.936836 C0.18556701,380.257969 1.47790213,383.34878 4.06257236,385.209268 C6.64724259,387.069756 10.0191974,388 14.1784369,388 Z M64.1705294,386.181818 C64.8221585,386.181818 65.4589778,386.108356 66.0809874,385.961433 C66.7029969,385.814509 67.1620993,385.682277 67.4582943,385.564738 L67.4582943,385.564738 L67.4582943,359.911846 C67.4582943,357.208448 67.0436212,354.842975 66.2142751,352.815427 C65.3849291,350.787879 64.2297684,349.112948 62.7487933,347.790634 C61.2678181,346.46832 59.5054576,345.48393 57.4617119,344.837466 C55.4179662,344.191001 53.1520742,343.867769 50.6640359,343.867769 C48.2352366,343.867769 46.0582031,344.191001 44.1329354,344.837466 C42.2076677,345.48393 40.5341658,346.218549 39.1124296,347.041322 L39.1124296,347.041322 L39.1124296,331.173554 C39.1124296,329.057851 37.8684105,328 35.3803722,328 C34.6695041,328 34.0030653,328.073462 33.3810557,328.220386 C32.7590462,328.367309 32.2999439,328.499541 32.0037488,328.61708 L32.0037488,328.61708 L32.0037488,383.008264 C32.0037488,385.123967 33.2773875,386.181818 35.8246648,386.181818 C36.5355328,386.181818 37.1871619,386.108356 37.779552,385.961433 C38.371942,385.814509 38.8162346,385.682277 39.1124296,385.564738 L39.1124296,385.564738 L39.1124296,353.476584 C40.4749268,352.418733 42.0595702,351.522498 43.8663599,350.787879 C45.6731496,350.05326 47.6132271,349.68595 49.6865923,349.68595 C52.8854987,349.68595 55.4623954,350.538108 57.4172827,352.242424 C59.3721699,353.94674 60.3496135,356.561983 60.3496135,360.088154 L60.3496135,360.088154 L60.3496135,383.008264 C60.3496135,385.123967 61.6232521,386.181818 64.1705294,386.181818 Z M101.084062,388 C102.995484,388 104.776582,387.821162 106.427356,387.463487 C108.078129,387.105812 109.526176,386.628912 110.771496,386.032787 C112.016817,385.436662 113.001488,384.751118 113.725512,383.976155 C114.449535,383.201192 114.811547,382.396423 114.811547,381.561848 C114.811547,380.131148 114.116485,378.99851 112.72636,378.163934 C111.567922,379.117735 110.004031,380.011923 108.034688,380.846498 C106.065344,381.681073 103.864313,382.098361 101.431594,382.098361 C93.0329217,382.098361 88.0516403,378.193741 86.4877497,370.384501 L86.4877497,370.384501 L113.247656,366.539493 C114.29025,366.420268 115.101156,366.077496 115.680375,365.511177 C116.259594,364.944858 116.549203,364.005961 116.549203,362.694486 C116.549203,360.011923 116.100309,357.552906 115.20252,355.317437 C114.304731,353.081967 113.05941,351.14456 111.466559,349.505216 C109.873707,347.865872 107.976766,346.599106 105.775734,345.704918 C103.574703,344.81073 101.170945,344.363636 98.5644608,344.363636 C95.7842108,344.363636 93.2066873,344.85544 90.8318904,345.839046 C88.4570935,346.822653 86.4153473,348.23845 84.706652,350.086438 C82.9979566,351.934426 81.6657535,354.184799 80.7100425,356.837556 C79.7543316,359.490313 79.2764761,362.515648 79.2764761,365.913562 C79.2764761,373.126677 81.2313394,378.611028 85.1410661,382.366617 C89.0507927,386.122206 94.3651248,388 101.084062,388 Z M84.7310216,365.272727 C84.8500298,360.309682 86.0996166,356.493163 88.4797819,353.823171 C90.8599472,351.153178 93.8649059,349.818182 97.4946579,349.818182 C101.064906,349.818182 103.846724,350.933296 105.840112,353.163525 C107.833501,355.393755 108.978955,358.236511 109.276476,361.691796 L109.276476,361.691796 L84.7310216,365.272727 Z M150.229698,337.090909 C151.583037,337.090909 152.671592,336.651515 153.495364,335.772727 C154.319136,334.893939 154.731022,333.818182 154.731022,332.545455 C154.731022,331.272727 154.319136,330.19697 153.495364,329.318182 C152.671592,328.439394 151.583037,328 150.229698,328 C148.876358,328 147.773093,328.439394 146.919901,329.318182 C146.066709,330.19697 145.640112,331.272727 145.640112,332.545455 C145.640112,333.818182 146.066709,334.893939 146.919901,335.772727 C147.773093,336.651515 148.876358,337.090909 150.229698,337.090909 Z M149.549203,388 C150.276476,388 150.943143,387.922958 151.549203,387.768875 C152.155264,387.614792 152.609809,387.476117 152.91284,387.352851 L152.91284,387.352851 L152.91284,347.784284 C152.91284,345.503852 151.640112,344.363636 149.094658,344.363636 C148.367385,344.363636 147.685567,344.440678 147.049203,344.594761 C146.41284,344.748844 145.943143,344.887519 145.640112,345.010786 L145.640112,345.010786 L145.640112,384.671803 C145.640112,386.890601 146.943143,388 149.549203,388 Z M179.706694,388 C184.87272,388 188.819797,386.926975 191.547923,384.780924 C194.276049,382.634873 195.640112,379.654247 195.640112,375.839046 C195.640112,372.441133 194.653343,369.743666 192.679805,367.746647 C190.706267,365.749627 187.74596,364.244411 183.798883,363.230999 L183.798883,363.230999 L177.791201,361.710879 C175.759617,361.233979 174.308486,360.518629 173.437808,359.564829 C172.567129,358.611028 172.13179,357.448584 172.13179,356.077496 C172.13179,354.229508 172.900889,352.798808 174.439088,351.785395 C175.977287,350.771982 178.052404,350.265276 180.66444,350.265276 C183.276476,350.265276 185.540241,350.682563 187.455733,351.517139 C189.371226,352.351714 190.85138,353.126677 191.896194,353.842027 C192.534692,353.543964 193.042588,353.09687 193.419882,352.500745 C193.797176,351.90462 193.985823,351.219076 193.985823,350.444113 C193.985823,348.834575 192.73785,347.418778 190.241905,346.196721 C187.74596,344.974665 184.466404,344.363636 180.403237,344.363636 C177.849246,344.363636 175.629016,344.676602 173.742545,345.302534 C171.856075,345.928465 170.274342,346.777943 168.997347,347.850969 C167.720351,348.923994 166.777116,350.175857 166.167641,351.606557 C165.558166,353.037258 165.253429,354.527571 165.253429,356.077496 C165.253429,358.938897 166.066062,361.278689 167.691329,363.09687 C169.316596,364.915052 171.899609,366.301043 175.440369,367.254844 L175.440369,367.254844 L182.667001,369.222057 C186.672123,370.235469 188.674684,372.441133 188.674684,375.839046 C188.674684,380.011923 185.656331,382.098361 179.619626,382.098361 C176.949545,382.098361 174.56969,381.636364 172.480061,380.71237 C170.390433,379.788376 168.562007,378.730253 166.994786,377.538003 C166.240198,378.014903 165.674257,378.581222 165.296963,379.23696 C164.919669,379.892697 164.731022,380.578241 164.731022,381.293592 C164.731022,382.128167 165.093804,382.947839 165.81937,383.752608 C166.544935,384.557377 167.560727,385.272727 168.866745,385.898659 C170.172763,386.52459 171.754496,387.031297 173.611943,387.418778 C175.469391,387.806259 177.500975,388 179.706694,388 Z M210.458294,386.181818 C211.185567,386.181818 211.852234,386.108356 212.458294,385.961433 C213.064355,385.814509 213.5189,385.682277 213.821931,385.564738 L213.821931,385.564738 L213.821931,331.173554 C213.821931,329.057851 212.5189,328 209.91284,328 C209.246173,328 208.594658,328.073462 207.958294,328.220386 C207.321931,328.367309 206.852234,328.499541 206.549203,328.61708 L206.549203,328.61708 L206.549203,383.008264 C206.549203,385.123967 207.852234,386.181818 210.458294,386.181818 Z M242.407527,388 C245.458294,388 248.165103,387.687674 250.527952,387.063023 C252.890801,386.438371 254.790053,385.709611 256.225709,384.876743 C257.242631,384.281837 258.005323,383.642313 258.513784,382.958171 C259.022245,382.274029 259.276476,381.277561 259.276476,379.968767 L259.276476,379.968767 L259.276476,358.819855 C259.276476,353.822644 257.751092,350.163971 254.700325,347.843837 C251.649558,345.523703 247.522049,344.363636 242.317798,344.363636 C239.865221,344.363636 237.5921,344.586726 235.498436,345.032906 C233.404772,345.479085 231.550384,346.118609 229.935272,346.951478 C229.037987,347.427403 228.379979,347.933073 227.961246,348.468489 C227.542513,349.003904 227.333147,349.688046 227.333147,350.520915 C227.333147,351.175311 227.527558,351.770218 227.916382,352.305633 C228.305205,352.841049 228.738892,353.316973 229.217444,353.733408 C230.952194,352.841049 232.92622,352.037925 235.139522,351.324038 C237.352824,350.610151 239.715673,350.253207 242.22807,350.253207 C245.278837,350.253207 247.701506,350.937349 249.496075,352.305633 C251.290644,353.673917 252.187928,355.845324 252.187928,358.819855 L252.187928,358.819855 L252.187928,361.318461 L239.446488,362.567764 C234.780608,363.043688 231.161561,364.278119 228.589345,366.271054 C226.017129,368.26399 224.731022,371.223648 224.731022,375.150028 C224.731022,379.314371 226.27136,382.497118 229.352037,384.698271 C232.432714,386.899424 236.784544,388 242.407527,388 Z M242.828367,382.545455 C239.189321,382.545455 236.475457,381.924242 234.686774,380.681818 C232.89809,379.439394 232.003749,377.666667 232.003749,375.363636 C232.003749,373.181818 232.774733,371.530303 234.316701,370.409091 C235.85867,369.287879 238.233301,368.575758 241.440595,368.272727 L241.440595,368.272727 L252.91284,367.090909 L252.91284,380.272727 C252.172695,380.757576 250.95454,381.257576 249.258375,381.772727 C247.56221,382.287879 245.418874,382.545455 242.828367,382.545455 Z M305.08784,388 C305.73784,388 306.373067,387.924242 306.993522,387.772727 C307.613976,387.621212 308.071931,387.484848 308.367385,387.363636 L308.367385,387.363636 L308.367385,359.818182 C308.367385,354.484848 306.816249,350.575758 303.713976,348.090909 C300.611703,345.606061 296.371931,344.363636 290.994658,344.363636 C287.803749,344.363636 284.93784,344.757576 282.396931,345.545455 C279.856022,346.333333 277.817385,347.212121 276.281022,348.181818 C275.040112,348.969697 274.168522,349.772727 273.666249,350.590909 C273.163976,351.409091 272.91284,352.454545 272.91284,353.727273 L272.91284,353.727273 L272.91284,384.727273 C272.91284,386.909091 274.183294,388 276.724203,388 C277.433294,388 278.083294,387.924242 278.674203,387.772727 C279.265112,387.621212 279.708294,387.484848 280.003749,387.363636 L280.003749,387.363636 L280.003749,353.363636 C281.303749,352.575758 282.869658,351.878788 284.701476,351.272727 C286.533294,350.666667 288.631022,350.363636 290.994658,350.363636 C294.126476,350.363636 296.623067,351.151515 298.484431,352.727273 C300.345794,354.30303 301.276476,356.787879 301.276476,360.181818 L301.276476,360.181818 L301.276476,384.727273 C301.276476,386.909091 302.546931,388 305.08784,388 Z M340.878722,388 C343.711803,388 346.220261,387.655689 348.404094,386.967066 C350.587928,386.278443 352.27007,385.54491 353.450521,384.766467 C354.512926,384.107784 355.294975,383.449102 355.796666,382.790419 C356.298358,382.131737 356.549203,381.203593 356.549203,380.005988 L356.549203,380.005988 L356.549203,331.233533 C356.549203,329.077844 355.280219,328 352.74225,328 C352.093002,328 351.45851,328.07485 350.838774,328.224551 C350.219037,328.374251 349.761613,328.508982 349.4665,328.628743 L349.4665,328.628743 L349.4665,346.682635 C348.168004,345.964072 346.633418,345.365269 344.862743,344.886228 C343.092067,344.407186 341.262368,344.167665 339.373647,344.167665 C336.599588,344.167665 333.987842,344.586826 331.538407,345.42515 C329.088972,346.263473 326.964161,347.580838 325.163973,349.377246 C323.363786,351.173653 321.93249,353.464072 320.870084,356.248503 C319.807679,359.032934 319.276476,362.371257 319.276476,366.263473 C319.276476,370.095808 319.792923,373.374251 320.825817,376.098802 C321.858712,378.823353 323.334275,381.068862 325.252507,382.835329 C327.170739,384.601796 329.457862,385.904192 332.113876,386.742515 C334.76989,387.580838 337.691505,388 340.878722,388 Z M339.767877,383.454545 C335.497372,383.454545 332.075119,382.198161 329.501116,379.685393 C326.927114,377.172625 325.640112,373.097038 325.640112,367.458631 C325.640112,364.39428 326.005738,361.789581 326.736989,359.644535 C327.468239,357.499489 328.448115,355.768131 329.676617,354.45046 C330.905118,353.132789 332.323744,352.18284 333.932496,351.600613 C335.541247,351.018386 337.252374,350.727273 339.065876,350.727273 C341.054878,350.727273 342.80988,351.033708 344.330881,351.646578 C345.851883,352.259448 347.197384,352.994893 348.367385,353.852911 L348.367385,353.852911 L348.367385,381.064351 C347.314384,381.738509 346.129758,382.305414 344.813507,382.765066 C343.497255,383.224719 341.815379,383.454545 339.767877,383.454545 Z M391.367385,386.181818 C392.094658,386.181818 392.761325,386.108356 393.367385,385.961433 C393.973446,385.814509 394.427991,385.682277 394.731022,385.564738 L394.731022,385.564738 L394.731022,331.173554 C394.731022,329.057851 393.427991,328 390.821931,328 C390.155264,328 389.503749,328.073462 388.867385,328.220386 C388.231022,328.367309 387.761325,328.499541 387.458294,328.61708 L387.458294,328.61708 L387.458294,383.008264 C387.458294,385.123967 388.761325,386.181818 391.367385,386.181818 Z M424.225709,388 C427.276476,388 429.983284,387.687674 432.346134,387.063023 C434.708983,386.438371 436.608235,385.709611 438.043891,384.876743 C439.060813,384.281837 439.823505,383.642313 440.331966,382.958171 C440.840427,382.274029 441.094658,381.277561 441.094658,379.968767 L441.094658,379.968767 L441.094658,358.819855 C441.094658,353.822644 439.569274,350.163971 436.518507,347.843837 C433.467739,345.523703 429.340231,344.363636 424.13598,344.363636 C421.683403,344.363636 419.410282,344.586726 417.316618,345.032906 C415.222954,345.479085 413.368566,346.118609 411.753454,346.951478 C410.856169,347.427403 410.19816,347.933073 409.779428,348.468489 C409.360695,349.003904 409.151329,349.688046 409.151329,350.520915 C409.151329,351.175311 409.34574,351.770218 409.734563,352.305633 C410.123387,352.841049 410.557074,353.316973 411.035626,353.733408 C412.770376,352.841049 414.744402,352.037925 416.957704,351.324038 C419.171006,350.610151 421.533855,350.253207 424.046252,350.253207 C427.097019,350.253207 429.519687,350.937349 431.314257,352.305633 C433.108826,353.673917 434.00611,355.845324 434.00611,358.819855 L434.00611,358.819855 L434.00611,361.318461 L421.26467,362.567764 C416.59879,363.043688 412.979743,364.278119 410.407527,366.271054 C407.835311,368.26399 406.549203,371.223648 406.549203,375.150028 C406.549203,379.314371 408.089542,382.497118 411.170219,384.698271 C414.250896,386.899424 418.602726,388 424.225709,388 Z M424.646549,382.545455 C421.007503,382.545455 418.293639,381.924242 416.504956,380.681818 C414.716272,379.439394 413.821931,377.666667 413.821931,375.363636 C413.821931,373.181818 414.592915,371.530303 416.134883,370.409091 C417.676852,369.287879 420.051483,368.575758 423.258777,368.272727 L423.258777,368.272727 L434.731022,367.090909 L434.731022,380.272727 C433.990877,380.757576 432.772722,381.257576 431.076557,381.772727 C429.380391,382.287879 427.237055,382.545455 424.646549,382.545455 Z M470.60349,388 C473.606506,388 476.373992,387.565868 478.905946,386.697605 C481.437901,385.829341 483.601839,384.497006 485.39776,382.700599 C487.193681,380.904192 488.592145,378.628743 489.59315,375.874251 C490.594155,373.11976 491.094658,369.856287 491.094658,366.083832 C491.094658,362.371257 490.608876,359.137725 489.637312,356.383234 C488.665748,353.628743 487.311447,351.353293 485.574408,349.556886 C483.837369,347.760479 481.791197,346.413174 479.43589,345.51497 C477.080584,344.616766 474.548629,344.167665 471.840026,344.167665 C469.425837,344.167665 467.320782,344.482036 465.52486,345.110778 C463.728939,345.739521 462.183269,346.473054 460.887851,347.311377 L460.887851,347.311377 L460.887851,331.233533 C460.887851,329.077844 459.651315,328 457.178243,328 C456.471651,328 455.809221,328.07485 455.190953,328.224551 C454.572685,328.374251 454.116344,328.508982 453.821931,328.628743 L453.821931,328.628743 L453.821931,379.287425 C453.821931,380.54491 454.057461,381.547904 454.528523,382.296407 C454.999584,383.04491 455.853383,383.808383 457.089919,384.586826 C458.561985,385.48503 460.460951,386.278443 462.786816,386.967066 C465.112682,387.655689 467.71824,388 470.60349,388 Z M471.582293,383.454545 C469.376325,383.454545 467.446103,383.14811 465.791628,382.53524 C464.137152,381.92237 462.874526,381.278856 462.003749,380.604699 L462.003749,380.604699 L462.003749,354.588355 C463.164784,353.546476 464.57254,352.642492 466.227016,351.876404 C467.881492,351.110317 469.724636,350.727273 471.756448,350.727273 C473.614105,350.727273 475.341146,351.04903 476.93757,351.692543 C478.533994,352.336057 479.912724,353.31665 481.073759,354.634321 C482.234795,355.951992 483.134598,357.652707 483.773167,359.736466 C484.411737,361.820225 484.731022,364.271706 484.731022,367.090909 C484.731022,369.910112 484.411737,372.346272 483.773167,374.399387 C483.134598,376.452503 482.234795,378.153218 481.073759,379.501532 C479.912724,380.849847 478.533994,381.845761 476.93757,382.489275 C475.341146,383.132789 473.556053,383.454545 471.582293,383.454545 Z" id="theislandlab" fill="#000000" fill-rule="nonzero"></path>
            </g>
        </g>
    </g>
</svg>